%FSLAX33Y33*%
%MOMM*%
%ADD10C,0.381*%
D10*
%LNpath-145*%
G01*
X0Y0D02*
X218200Y0D01*
X218200Y128500*
X0Y128500*
X0Y0*
X83425Y77695D02*
X86425Y77695D01*
X86425Y79195*
X83425Y79195*
X83425Y77695*
X64830Y117804D02*
X67830Y117804D01*
X67830Y119304*
X64830Y119304*
X64830Y117804*
X63300Y77699D02*
X66300Y77699D01*
X66300Y79199*
X63300Y79199*
X63300Y77699*
X103649Y97695D02*
X106649Y97695D01*
X106649Y99195*
X103649Y99195*
X103649Y97695*
X163500Y77695D02*
X166500Y77695D01*
X166500Y79195*
X163500Y79195*
X163500Y77695*
X123524Y77695D02*
X126524Y77695D01*
X126524Y79195*
X123524Y79195*
X123524Y77695*
X143350Y77804D02*
X146350Y77804D01*
X146350Y79304*
X143350Y79304*
X143350Y77804*
X183624Y117699D02*
X186624Y117699D01*
X186624Y119199*
X183624Y119199*
X183624Y117699*
X63250Y97695D02*
X66250Y97695D01*
X66250Y99195*
X63250Y99195*
X63250Y97695*
X83300Y117824D02*
X86300Y117824D01*
X86300Y119324*
X83300Y119324*
X83300Y117824*
X37468Y105634D02*
X40468Y105634D01*
X40468Y107134*
X37468Y107134*
X37468Y105634*
X103399Y117725D02*
X106399Y117725D01*
X106399Y119225*
X103399Y119225*
X103399Y117725*
X210235Y91655D02*
X211735Y91655D01*
X211735Y94655*
X210235Y94655*
X210235Y91655*
X143375Y97695D02*
X146375Y97695D01*
X146375Y99195*
X143375Y99195*
X143375Y97695*
X24280Y77695D02*
X27280Y77695D01*
X27280Y79195*
X24280Y79195*
X24280Y77695*
X203124Y97899D02*
X204624Y97899D01*
X204624Y100899*
X203124Y100899*
X203124Y97899*
X43425Y79939D02*
X44925Y79939D01*
X44925Y82939*
X43425Y82939*
X43425Y79939*
X143750Y117675D02*
X146750Y117675D01*
X146750Y119175*
X143750Y119175*
X143750Y117675*
X103200Y77705D02*
X106200Y77705D01*
X106200Y79205*
X103200Y79205*
X103200Y77705*
X49898Y82664D02*
X52898Y82664D01*
X52898Y84164*
X49898Y84164*
X49898Y82664*
X210339Y103639D02*
X211839Y103639D01*
X211839Y106639*
X210339Y106639*
X210339Y103639*
X123475Y117675D02*
X126475Y117675D01*
X126475Y119175*
X123475Y119175*
X123475Y117675*
X203374Y77217D02*
X204874Y77217D01*
X204874Y80217*
X203374Y80217*
X203374Y77217*
X51344Y81210D02*
X54344Y81210D01*
X54344Y82710*
X51344Y82710*
X51344Y81210*
X203250Y117749D02*
X206250Y117749D01*
X206250Y119249*
X203250Y119249*
X203250Y117749*
X212506Y84449D02*
X215506Y84449D01*
X215506Y85949*
X212506Y85949*
X212506Y84449*
X26024Y22365D02*
X27524Y22365D01*
X27524Y25365*
X26024Y25365*
X26024Y22365*
X53044Y82685D02*
X56044Y82685D01*
X56044Y84185*
X53044Y84185*
X53044Y82685*
X206689Y97077D02*
X209689Y97077D01*
X209689Y98577*
X206689Y98577*
X206689Y97077*
X123249Y97695D02*
X126249Y97695D01*
X126249Y99195*
X123249Y99195*
X123249Y97695*
X28700Y33912D02*
X30200Y33912D01*
X30200Y36912*
X28700Y36912*
X28700Y33912*
X183261Y77699D02*
X186261Y77699D01*
X186261Y79199*
X183261Y79199*
X183261Y77699*
X164474Y117699D02*
X167474Y117699D01*
X167474Y119199*
X164474Y119199*
X164474Y117699*
X183450Y96095D02*
X184950Y96095D01*
X184950Y99095*
X183450Y99095*
X183450Y96095*
X83149Y97695D02*
X86149Y97695D01*
X86149Y99195*
X83149Y99195*
X83149Y97695*
X163200Y97695D02*
X166200Y97695D01*
X166200Y99195*
X163200Y99195*
X163200Y97695*
X42239Y82800D02*
X45239Y82800D01*
X45239Y84300*
X42239Y84300*
X42239Y82800*
%LNmechanical details_traces*%
M02*